<?xml version="1.0" encoding="UTF-8"?>
<svg width="87px" height="57px" viewBox="0 0 87 57" version="1.1" xmlns="http://www.w3.org/2000/svg" xmlns:xlink="http://www.w3.org/1999/xlink">
    <!-- Generator: Sketch 42 (36781) - http://www.bohemiancoding.com/sketch -->
    <title>Shape</title>
    <desc>Created with Sketch.</desc>
    <defs></defs>
    <g id="Page-1" stroke="none" stroke-width="1" fill="none" fill-rule="evenodd">
        <g id="doodle" fill-rule="nonzero" fill="#FFFFFF">
            <path d="M47.474,56.922 C41.977,56.922 37.091,54.01 34.048,49.379 C31.187,52.133 27.516,53.956 23.644,53.713 C20.059,53.482 13.645,51.097 10.971,37.726 C10.379,34.769 10.009,31.972 9.858,29.34 C6.346,32.027 4.091,35.365 3.42,37.043 C3.112,37.814 2.239,38.187 1.47,37.879 C0.701,37.571 0.327,36.698 0.635,35.93 C1.562,33.611 4.753,28.949 9.792,25.73 C9.966,18.095 12.227,12.03 16.559,7.621 C23.32,0.74 33.503,-0.287 40.169,0.926 C45.519,1.899 50.178,6.689 51.738,12.61 C52.909,13.366 54.001,14.219 55.008,15.166 C62.681,13.764 68.279,14.794 71.684,18.241 C71.967,18.528 72.229,18.825 72.471,19.132 C76.925,18.539 80.418,19.491 82.887,21.972 C90.199,29.324 85.116,47.492 84.897,48.261 C84.668,49.059 83.838,49.517 83.043,49.291 C82.246,49.063 81.785,48.233 82.012,47.437 C82.061,47.265 86.836,30.192 80.758,24.085 C79.206,22.526 76.976,21.827 74.114,21.986 C76.218,27.198 74.692,33.273 74.499,33.993 C73.323,39.711 67.249,43.27 61.898,43.27 C61.815,43.27 61.732,43.269 61.65,43.268 C59.523,50.689 54.613,56.922 47.474,56.922 Z M36.142,47.01 C38.435,50.952 42.335,53.922 47.474,53.922 C52.818,53.922 56.795,48.934 58.659,42.776 C57.322,42.328 56.241,41.58 55.494,40.58 C54.762,39.599 53.998,37.876 54.524,35.244 C55.174,31.994 56.812,29.276 58.753,27.078 C57.833,23.95 56.292,20.951 53.994,18.425 C53.399,18.556 52.79,18.701 52.167,18.862 C51.618,23.54 48.943,29.995 39.687,35.367 C39.948,37.371 39.721,39.518 38.977,41.719 C38.359,43.541 37.385,45.359 36.142,47.01 Z M12.785,27.447 C12.839,30.422 13.214,33.654 13.911,37.138 C15.602,45.592 19.127,50.415 23.836,50.719 C26.806,50.922 30.049,49.282 32.556,46.642 C31.781,44.896 31.236,42.981 30.969,40.944 C30.845,39.998 30.782,39.078 30.776,38.184 C27.526,38.221 24.56,37.117 22.103,34.853 C19.533,32.484 17.934,29.173 17.466,25.704 C16.988,25.808 16.512,25.934 16.038,26.081 C14.886,26.438 13.8,26.905 12.785,27.447 Z M33.799,37.813 C33.776,38.744 33.826,39.661 33.944,40.553 C34.088,41.652 34.343,42.752 34.703,43.825 C35.284,42.862 35.77,41.832 36.134,40.756 C36.485,39.719 36.812,38.343 36.799,36.838 C35.79,37.265 34.787,37.59 33.799,37.813 Z M62.09,27.947 C62.686,30.573 62.933,33.351 62.804,36.191 C62.742,37.542 62.59,38.903 62.349,40.248 C66.056,40.049 70.694,37.716 71.567,33.352 C71.574,33.315 71.583,33.278 71.593,33.242 C71.613,33.171 73.283,26.971 71.025,22.436 C70.611,22.529 70.186,22.635 69.753,22.755 C69.166,23.013 65.354,24.772 62.09,27.947 Z M59.573,30.923 C58.594,32.373 57.829,34.012 57.465,35.832 C57.217,37.075 57.362,38.068 57.898,38.785 C58.28,39.298 58.828,39.629 59.371,39.844 C59.602,38.593 59.75,37.322 59.808,36.055 C59.882,34.384 59.812,32.654 59.573,30.923 Z M20.461,25.335 C20.847,28.121 22.118,30.787 24.135,32.647 C26.071,34.43 28.398,35.275 30.974,35.183 C31.271,33.103 31.89,31.187 32.76,29.434 C32.655,29.359 32.548,29.286 32.438,29.212 C28.391,26.514 24.378,25.211 20.461,25.335 Z M35.086,31.661 C34.686,32.637 34.385,33.625 34.175,34.613 C34.859,34.4 35.553,34.129 36.257,33.798 C35.99,33.077 35.609,32.358 35.086,31.661 Z M36.579,28.806 C37.573,29.873 38.344,31.066 38.881,32.352 C44.495,28.906 47.989,24.532 48.997,19.807 C42.89,21.923 38.923,25.174 36.579,28.806 Z M20.978,22.318 C25.316,22.318 29.709,23.787 34.103,26.716 C34.169,26.76 34.235,26.805 34.3,26.849 C37.861,21.77 43.63,18.361 49.295,16.561 C49.277,15.947 49.22,15.33 49.12,14.71 C49.108,14.642 49.098,14.573 49.085,14.505 C46.307,12.924 42.912,11.84 38.817,11.467 C26.88,10.384 22.73,15.563 21.317,18.748 C20.817,19.875 20.513,21.088 20.395,22.326 C20.588,22.321 20.783,22.318 20.978,22.318 Z M57.411,17.812 C57.549,17.99 57.684,18.171 57.818,18.354 C59.209,20.263 60.327,22.408 61.151,24.716 C64.726,21.629 68.4,20.066 68.672,19.952 C68.729,19.929 68.786,19.909 68.845,19.892 C68.898,19.877 68.95,19.862 69.003,19.848 C66.539,17.786 62.657,17.108 57.411,17.812 Z M35.272,3.513 C30.196,3.513 23.474,4.861 18.697,9.722 C15.243,13.237 13.297,18.039 12.869,24.072 C13.6,23.749 14.36,23.461 15.148,23.217 C15.879,22.99 16.613,22.806 17.349,22.665 C17.451,20.903 17.852,19.16 18.574,17.534 C21.533,10.866 29.011,7.562 39.088,8.482 C42.229,8.767 45.126,9.457 47.741,10.53 C45.984,7.094 42.931,4.476 39.631,3.876 C38.443,3.659 36.947,3.513 35.272,3.513 Z" id="Shape"></path>
        </g>
    </g>
</svg>