<?xml version="1.0" encoding="UTF-8"?>
<svg width="187px" height="295px" viewBox="0 0 187 295" version="1.1" xmlns="http://www.w3.org/2000/svg" xmlns:xlink="http://www.w3.org/1999/xlink">
    <!-- Generator: Sketch 42 (36781) - http://www.bohemiancoding.com/sketch -->
    <title>Artboard</title>
    <desc>Created with Sketch.</desc>
    <defs></defs>
    <g id="Page-1" stroke="none" stroke-width="1" fill="none" fill-rule="evenodd">
        <g id="Artboard" fill-rule="nonzero">
            <g id="Mouse-cursor-hand-pointer" transform="translate(0.000000, -27.000000)">
                <path d="M8.300095,27.125 C5.781295,27.125 3.270095,27.125 0.750095,27.15 C0.390095,84.76001 0.605215,142.38998 0.525055,200 C0.635295,230.56004 0.305375,261.12498 0.725055,291.675 C11.095375,291.665 21.465135,291.755 31.825055,291.675 C32.102495,287.23012 32.173055,282.74266 32.175135,278.25 L32.175135,276.225 L34.2001,276.25 C38.60986,276.2789 43.01058,276.252 47.4001,276.2 C47.50602,271.6857 47.82386,267.14231 47.3251,262.625 L47.05014,260.1 L49.57518,260.425 C54.1175,261.00352 58.70966,260.622 63.25014,260.525 C63.33674,256.17468 63.43454,251.82126 63.47518,247.475 L63.50018,245.475 L65.50018,245.5 C68.93234,245.5267 72.3741,245.4888 75.82514,245.3 L78.10018,245.175 L77.92514,247.45 C77.21146,256.96482 78.81898,266.48621 78.30018,276 C82.78994,276.14849 87.27914,276.2084 91.77522,276.25 L93.72514,276.275 L93.75014,278.225 C93.83794,287.86542 93.81584,297.50131 93.97518,307.15 C98.41158,307.237 102.84894,307.2886 107.30014,307.3 L109.27518,307.3 L109.30018,309.275 C109.38028,313.77155 109.4177,318.24095 109.40018,322.75 C119.8401,322.89 130.2853,322.86 140.72514,322.8 C141.10138,318.37183 141.26674,313.88152 140.95018,309.375 L140.80018,307.175 L143.00018,307.225 C147.4297,307.34837 151.87138,307.3112 156.25018,307.2 C156.40018,296.81002 156.34518,286.41505 156.22518,276.025 C151.76446,275.90302 147.31222,275.8468 142.85022,275.8 L140.90022,275.775 L140.87522,273.825 C140.72418,264.16522 140.79722,254.53708 140.75018,244.875 C136.28194,244.7111 131.77122,244.62694 127.27522,244.75 L125.15018,244.8 L125.22518,242.675 C125.37742,238.95266 125.43838,235.24375 125.42518,231.55 L125.42518,229.55 L127.42518,229.55 C147.38566,229.5147 167.32838,229.5226 187.30022,229.3 C187.4303,218.94998 187.4651,208.60003 187.27522,198.25 C182.78498,198.25 178.30266,198.2166 173.82514,198.15 L171.87522,198.125 L171.85022,196.175 C171.78522,191.68692 171.74918,187.19126 171.77522,182.7 C167.30898,182.5868 162.85226,182.5606 158.37522,182.55 L156.40018,182.55 L156.37518,180.575 C156.32608,176.12312 156.28718,171.67542 156.20014,167.225 C151.74494,167.026 147.26206,166.9068 142.75014,166.95 L140.7251,166.975 L140.7251,164.95 C140.7151,160.44233 140.6941,155.94416 140.6501,151.45 C136.15762,151.4763 131.65802,151.441 127.17514,151.35 L125.22506,151.3 L125.22506,149.35 C125.21326,144.93575 125.18046,140.5467 125.0501,136.15 C120.61586,135.907 116.17178,135.8678 111.7001,135.85 L109.72506,135.85 L109.70006,133.875 C109.62936,129.38322 109.58246,124.90507 109.60006,120.4 C105.1023,120.3825 100.61422,120.3482 96.12502,120.275 L94.22502,120.25 L94.15002,118.35 C93.98922,113.85969 93.80906,109.34989 93.80002,104.85 C89.41426,104.7458 85.03178,104.728 80.62498,104.725 L78.67506,104.725 L78.62496,102.775 C78.51616,98.3045 78.45616,93.80901 78.5,89.325 C74.00808,89.2726 69.5144,89.2406 65.02496,89.175 L63.12496,89.15 L63.04996,87.25 C62.87404,82.76013 62.809,78.26966 62.79996,73.75 C58.33188,73.6455 53.87524,73.6218 49.39996,73.6 L47.42492,73.6 L47.39992,71.625 C47.37172,67.1596 47.34562,62.68436 47.24992,58.225 C42.7604,58.1988 38.24832,58.1875 33.74992,58.15 L31.799915,58.125 L31.774955,56.175 C31.733835,51.69565 31.708955,47.19522 31.699915,42.7 C27.205755,42.5694 22.675755,42.5984 18.149915,42.625 L16.174955,42.625 L16.149915,40.65 C16.121515,36.141784 16.041355,31.631488 15.849915,27.15 C13.334955,27.135 10.818635,27.125 8.299915,27.125 L8.300095,27.125 Z" id="path4097" fill="#FFFFFF"></path>
                <path d="M0.75,27.16 C5.79,27.11 10.83,27.12 15.86,27.15 C16.08,32.3 16.2,37.45 16.2,42.6 C21.37,42.56 26.54,42.56 31.7,42.71 C31.71,47.85 31.72,52.99 31.78,58.12 C26.57,58.09 21.36,58.1 16.15,58.13 C16.11,130.72 16.3,203.3 16.24,275.88 C21.39,275.94 26.53,275.95 31.68,275.84 C31.63,270.71 31.65,265.59 31.7,260.46 C36.85,260.37 42.05,259.93 47.15,260.85 C47.99,265.93 47.51,271.09 47.39,276.21 C42.34,276.27 37.28,276.32 32.22,276.26 C32.26,281.4 32.14,286.55 31.82,291.68 C21.46,291.76 11.09,291.66 0.72,291.67 C0.3,261.12 0.64,230.56 0.53,200 C0.61,142.39 0.39,84.77 0.75,27.16 Z" id="path3022" fill="#1C1C1C"></path>
                <path d="M31.78,58.12 C36.93,58.17 42.09,58.19 47.24,58.22 C47.35,63.34 47.39,68.46 47.42,73.58 C52.55,73.6 57.68,73.63 62.81,73.75 C62.82,78.88 62.82,84.02 63.08,89.16 C68.22,89.25 73.36,89.27 78.5,89.33 C78.45,94.45 78.49,99.58 78.64,104.7 C83.7,104.69 88.76,104.74 93.81,104.86 C93.82,109.99 94.03,115.12 94.21,120.25 C99.33,120.35 104.46,120.37 109.59,120.39 C109.57,125.52 109.6,130.65 109.7,135.79 C114.82,135.79 119.95,135.86 125.06,136.14 C125.21,141.2 125.26,146.26 125.26,151.33 C130.39,151.46 135.52,151.49 140.65,151.46 C140.7,156.61 140.74,161.76 140.74,166.91 C135.54,167.17 130.34,167.13 125.14,166.99 C125.14,161.85 125.16,156.7 125.16,151.55 C119.94,151.48 114.72,151.49 109.51,151.52 C109.58,146.31 109.59,141.11 109.5,135.91 C104.35,135.92 99.19,135.93 94.04,135.94 C94.04,130.77 94.06,125.61 94.07,120.45 C88.85,120.33 83.64,120.34 78.43,120.42 C78.44,115.21 78.46,110 78.4,104.79 C73.25,104.79 68.09,104.8 62.94,104.81 C62.87,99.62 62.89,94.43 62.83,89.24 C57.65,89.24 52.47,89.25 47.3,89.13 C47.33,83.99 47.34,78.85 47.29,73.71 C42.16,73.65 37.03,73.66 31.9,73.69 C31.74,68.5 31.76,63.31 31.78,58.12 L31.78,58.12 Z" id="path3024" fill="#1C1C1C"></path>
                <path d="M140.74,166.91 C145.9,166.77 151.05,167 156.2,167.23 C156.3,172.33 156.34,177.43 156.4,182.53 C161.53,182.53 166.65,182.57 171.78,182.7 C171.75,187.84 171.78,192.99 171.87,198.13 C177,198.22 182.14,198.25 187.28,198.25 C187.47,208.6 187.44,218.94 187.31,229.29 C166.68,229.52 146.06,229.52 125.44,229.56 C125.47,234.63 125.49,239.71 125.21,244.78 C120.01,245.04 114.8,244.98 109.6,244.94 C109.45,234.56 109.46,224.18 109.6,213.81 C130.33,213.68 151.07,213.87 171.8,213.78 C171.87,208.59 171.87,203.39 171.79,198.2 C166.61,198.17 161.42,198.18 156.24,198.1 C156.25,192.95 156.27,187.8 156.23,182.65 C151.1,182.6 145.96,182.61 140.83,182.66 C140.64,177.41 140.64,172.16 140.74,166.91 L140.74,166.91 Z" id="path3028" fill="#1C1C1C"></path>
                <path d="M62.88,229.23 C68.03,229.2 73.18,229.21 78.33,229.24 C78.52,234.56 78.76,239.92 78.03,245.21 C73.19,245.59 68.34,245.54 63.5,245.49 C63.48,250.5 63.36,255.51 63.26,260.53 C58.11,260.64 52.89,261.17 47.79,260.2 C46.71,255.15 47.23,249.95 47.32,244.84 C52.48,244.81 57.64,244.81 62.8,244.81 C62.78,239.62 62.78,234.42 62.88,229.23 L62.88,229.23 Z" id="path3032" fill="#1C1C1C"></path>
                <path d="M78.03,245.21 C83.34,244.63 88.68,244.8 94,244.9 C94.11,255.24 94.01,265.59 94.07,275.93 C99.26,275.92 104.44,275.92 109.63,276.03 C109.66,286.33 109.54,296.63 109.7,306.94 C120.09,307.1 130.5,306.61 140.88,307.22 C141.48,312.4 141.16,317.62 140.72,322.8 C130.28,322.86 119.85,322.9 109.41,322.76 C109.43,317.61 109.39,312.47 109.28,307.32 C104.18,307.33 99.07,307.26 93.97,307.16 C93.8,296.86 93.84,286.56 93.73,276.27 C88.59,276.23 83.45,276.16 78.31,275.99 C78.87,265.72 76.83,255.45 78.03,245.21 L78.03,245.21 Z" id="path3034" fill="#1C1C1C"></path>
                <path d="M125.21,244.78 C130.38,244.54 135.56,244.68 140.74,244.87 C140.79,255.17 140.67,265.47 140.87,275.78 C145.99,275.83 151.1,275.89 156.22,276.03 C156.34,286.42 156.4,296.81 156.25,307.2 C151.13,307.33 146,307.46 140.88,307.22 C140.3,296.87 140.78,286.49 140.68,276.13 C135.47,276.02 130.26,276.04 125.06,276 C125.05,265.6 124.94,255.18 125.21,244.78 Z" id="path3036" fill="#1C1C1C"></path>
            </g>
        </g>
    </g>
</svg>