<?xml version="1.0" encoding="UTF-8"?>
<svg width="265px" height="343px" viewBox="0 0 265 343" version="1.1" xmlns="http://www.w3.org/2000/svg" xmlns:xlink="http://www.w3.org/1999/xlink">
    <!-- Generator: Sketch 42 (36781) - http://www.bohemiancoding.com/sketch -->
    <title>Artboard</title>
    <desc>Created with Sketch.</desc>
    <defs></defs>
    <g id="Page-1" stroke="none" stroke-width="1" fill="none" fill-rule="evenodd">
        <g id="Artboard" fill-rule="nonzero">
            <g id="Mouse-cursor-hand-pointer" transform="translate(-227.000000, 0.000000)">
                <path d="M305.2501,0.425 C305.1801,4.941521 305.1591,9.454106 305.12506,13.975 L305.10006,15.875 L303.20006,15.95 C298.69182,16.09803 294.16286,16.14862 289.62502,16.175 C289.37878,62.07656 289.51502,107.95863 289.50006,153.85 L289.50006,155.825 L287.52502,155.85 C283.71518,155.8896 279.88158,155.9256 276.05006,156.025 L273.9751,156.075 L274.0001,154 C274.0785,149.51454 274.0451,145.0337 273.9501,140.575 C258.38002,140.445 242.79506,140.365 227.22506,140.625 C227.24506,156.135 227.19506,171.63999 227.22506,187.15 C231.7385,187.2367 236.30594,187.44755 240.87514,187.125 L243.37514,186.95 L243.0001,189.425 C242.34618,193.90374 242.78306,198.43617 242.8001,202.925 C247.1081,203.1508 251.44538,203.193 255.8001,203.2 L257.6501,203.2 L257.8001,205.05 C258.52258,214.63844 258.1649,224.26614 258.32506,233.9 C262.79946,234.08281 267.3033,234.1556 271.8001,234.2 L273.7501,234.225 L273.7751,236.175 C273.8471,245.79397 273.8253,255.40797 273.9751,265.025 C278.49142,265.0966 283.03942,265.32613 287.60006,265.05 L289.90006,264.925 L289.72502,267.2 C288.9659,276.81486 289.62406,286.50862 289.55006,296.15 C293.9483,296.2369 298.34214,296.2992 302.75006,296.325 L304.72502,296.325 L304.75002,298.3 C304.94386,313.15138 304.84842,328.01494 305.05002,342.875 C330.69002,343.245 356.35002,343.28 382.00002,343.25 C408.2601,343.21 434.51498,343.43 460.77506,342.8 C460.35506,327.98553 461.6825,313.17875 461.07506,298.375 L461.00006,296.25 L463.12502,296.3 C467.5323,296.42427 471.94686,296.3373 476.32502,296.2 C476.48806,281.46578 476.50606,266.71066 476.52502,251.975 L476.52502,250.15 L478.32502,249.975 C482.80054,249.547 487.31422,249.5145 491.85006,249.55 C491.95998,233.04646 491.65222,216.55348 492.15006,200.05 L492.15006,200 L492.15006,199.95 C491.60222,180.12653 491.9899,160.28353 491.75006,140.45 C487.30206,140.4849 482.86454,140.4385 478.45006,140.375 L476.52502,140.35 L476.47512,138.425 C476.38612,134.05086 476.33008,129.65093 476.40012,125.25 C471.83596,125.1168 467.2998,125.26 462.77516,125 L461.02508,124.9 L460.90012,123.15 C460.57916,118.60199 460.73708,114.00832 460.67516,109.4 C450.99964,109.3626 441.33276,109.4413 431.67516,109.3 L429.72508,109.275 L429.70008,107.325 C429.62508,102.95778 429.57312,98.58902 429.62508,94.2 C414.78276,93.41427 399.90036,93.92288 385.05012,93.75 L383.15012,93.725 L383.07512,91.85 C382.87208,87.35234 382.79008,82.84222 382.80008,78.3 C373.14448,78.2531 363.49264,78.3308 353.85008,78.125 L351.92504,78.075 L351.90004,76.15 C351.70908,56.16957 351.81804,36.182784 351.75004,16.2 C349.175,16.17501 346.60012,16.155 344.025,16.15 C342.10524,16.1463 340.19276,16.1551 338.27508,16.175 L336.225,16.2 L336.25,14.15 C336.3187,9.564409 336.3109,4.976546 335.87504,0.425 C325.6648,0.455 315.46,0.485 305.25,0.425 L305.2501,0.425 Z" id="path4109" fill="#FFFFFF"></path>
                <path d="M305.24,0.42 C315.45,0.48 325.66,0.46 335.87,0.43 C336.36,5.55 336.34,10.7 336.24,15.83 C325.86,15.93 315.49,15.8 305.11,15.93 C305.15,10.76 305.16,5.59 305.24,0.42 L305.24,0.42 Z" id="path3016" fill="#1C1C1C"></path>
                <path d="M289.62,16.17 C294.78,16.14 299.95,16.15 305.11,15.93 C305.12,73.02 305.21,130.11 305.15,187.2 C299.95,187.32 294.75,187.32 289.55,187.21 C289.45,182.1 289.45,176.98 289.52,171.86 C284.35,171.66 279.18,171.69 274.01,171.71 C273.84,166.49 273.8,161.26 274,156.04 C279.16,155.85 284.33,155.91 289.5,155.83 C289.52,109.28 289.37,62.73 289.62,16.17 L289.62,16.17 Z" id="path3018" fill="#1C1C1C"></path>
                <path d="M336.3,16.19 C341.45,16.12 346.6,16.15 351.75,16.2 C351.82,36.84 351.68,57.49 351.9,78.13 C362.2,78.4 372.5,78.25 382.8,78.3 C382.79,83.45 382.8,88.6 383.1,93.75 C398.6,94 414.13,93.38 429.62,94.2 C429.56,99.23 429.59,104.26 429.7,109.29 C440.02,109.48 450.35,109.36 460.68,109.4 C460.75,114.57 460.42,119.77 460.97,124.92 C466.1,125.37 471.25,125.1 476.39,125.25 C476.31,130.29 476.35,135.33 476.48,140.37 C481.56,140.46 486.65,140.5 491.75,140.46 C491.99,160.31 491.6,180.16 492.15,200 C491.65,216.52 491.95,233.04 491.84,249.56 C486.72,249.52 481.6,249.5 476.52,250.13 C476.5,265.48 476.49,280.84 476.32,296.19 C471.22,296.35 466.11,296.52 461.02,296.27 C460.44,280.65 460.71,265.01 460.86,249.38 C465.99,249.43 471.13,249.43 476.27,249.39 C476.28,213.09 476.31,176.8 476.33,140.5 C471.2,140.43 466.07,140.44 460.94,140.5 C460.65,135.45 460.98,130.37 460.57,125.33 C455.48,124.35 450.28,124.95 445.14,124.93 C445.03,140.5 445.32,156.07 445.01,171.65 C439.93,171.66 434.84,171.66 429.76,171.67 C429.41,150.9 429.77,130.13 429.64,109.36 C419.23,109.3 408.82,109.33 398.42,109.36 C398.42,124.92 398.58,140.48 398.4,156.03 C393.24,156.14 388.09,156.14 382.94,156.04 C382.84,135.29 382.82,114.53 383.07,93.78 C372.65,93.73 362.24,93.72 351.82,93.84 C351.71,114.57 351.9,135.3 351.82,156.03 C346.61,156.18 341.39,156.19 336.18,156.04 C336.18,109.43 336.21,62.81 336.3,16.19 L336.3,16.19 Z" id="path3020" fill="#1C1C1C"></path>
                <path d="M227.23,140.62 C242.8,140.36 258.38,140.44 273.95,140.57 C274.06,145.73 274.15,150.88 274,156.04 C263.67,156.28 253.34,156.1 243.02,156.18 C242.64,166.46 243.57,176.77 242.87,187.04 C237.67,187.64 232.43,187.24 227.22,187.14 C227.19,171.63 227.25,156.13 227.23,140.62 L227.23,140.62 Z" id="path3026" fill="#1C1C1C"></path>
                <path d="M243.29,187.39 C248.29,186.62 253.37,186.91 258.41,187.05 C258.52,192.24 258.53,197.44 258.48,202.64 C263.68,202.67 268.87,202.66 274.07,202.73 C274.19,213.08 274.07,223.43 274.13,233.78 C279.26,233.75 284.4,233.76 289.54,233.83 C289.47,244.21 290.21,254.67 289.15,265 C284.09,265.46 279.02,265.1 273.97,265.02 C273.81,254.76 273.83,244.5 273.74,234.24 C268.6,234.21 263.46,234.12 258.32,233.91 C258.15,223.69 258.65,213.45 257.72,203.26 C252.75,203.28 247.77,203.19 242.81,202.93 C242.79,197.75 242.11,192.49 243.29,187.39 L243.29,187.39 Z" id="path3030" fill="#1C1C1C"></path>
                <path d="M289.86,265.07 C294.94,264.67 300.05,264.91 305.15,264.94 C305.29,275.27 305.16,285.6 305.19,295.92 C310.37,295.9 315.57,295.9 320.76,296.08 C320.86,306.41 320.67,316.75 320.82,327.08 C362.23,327.18 403.64,327.16 445.05,327.14 C445.21,316.8 445.01,306.46 445.12,296.11 C450.42,296.04 455.72,295.97 461.02,296.27 C461.86,311.77 460.34,327.28 460.78,342.8 C434.52,343.43 408.26,343.2 382,343.24 C356.35,343.27 330.7,343.24 305.06,342.87 C304.85,327.36 304.96,311.85 304.73,296.35 C299.67,296.34 294.61,296.26 289.55,296.16 C289.63,285.8 288.8,275.37 289.86,265.07 L289.86,265.07 Z" id="path3038" fill="#1C1C1C"></path>
            </g>
        </g>
    </g>
</svg>